<svg width="52" height="35" viewBox="0 0 52 35" fill="none" xmlns="http://www.w3.org/2000/svg">
<path d="M17.1484 0C16.277 8.94755e-06 15.559 0.281801 14.9951 0.845703L0.84668 14.9951C0.539227 15.3026 0.320614 15.6355 0.191406 15.9941C0.06427 16.353 0 16.7383 0 17.1484C4.19617e-05 17.5584 0.064312 17.943 0.191406 18.3018C0.320606 18.6605 0.539185 18.9933 0.84668 19.3008L14.9951 33.4502C15.559 34.0141 16.277 34.2959 17.1484 34.2959C18.0199 34.2959 18.7378 34.0141 19.3018 33.4502C19.8656 32.8863 20.1475 32.1683 20.1475 31.2969C20.1474 30.4255 19.8656 29.7074 19.3018 29.1436L10.1572 20H48.1475C49.8043 20 51.1475 18.6569 51.1475 17C51.1475 15.3431 49.8043 14 48.1475 14H10.4541L19.3018 5.15234C19.8657 4.58844 20.1475 3.87051 20.1475 2.99902C20.1475 2.12752 19.8657 1.40961 19.3018 0.845703C18.7378 0.281792 18.0199 0 17.1484 0Z" fill="#444444"/>
</svg>
