<svg width="52" height="35" viewBox="0 0 52 35" fill="none" xmlns="http://www.w3.org/2000/svg">
<path d="M33.999 0C34.8705 8.94755e-06 35.5884 0.281801 36.1523 0.845703L50.3008 14.9951C50.6082 15.3026 50.8268 15.6355 50.9561 15.9941C51.0832 16.353 51.1475 16.7383 51.1475 17.1484C51.1474 17.5584 51.0831 17.943 50.9561 18.3018C50.8269 18.6605 50.6083 18.9933 50.3008 19.3008L36.1523 33.4502C35.5884 34.0141 34.8705 34.2959 33.999 34.2959C33.1275 34.2959 32.4096 34.0141 31.8457 33.4502C31.2818 32.8863 31 32.1683 31 31.2969C31 30.4255 31.2818 29.7074 31.8457 29.1436L40.9902 20H3C1.34315 20 -3.10402e-09 18.6569 0 17C1.44847e-07 15.3431 1.34315 14 3 14H40.6934L31.8457 5.15234C31.2818 4.58844 31 3.87051 31 2.99902C31 2.12752 31.2818 1.40961 31.8457 0.845703C32.4096 0.281792 33.1275 0 33.999 0Z" fill="#444444"/>
</svg>
