<svg width="13" height="21" viewBox="0 0 13 21" fill="none" xmlns="http://www.w3.org/2000/svg">
<path d="M1.22386 20.49C0.883863 20.15 0.713867 19.7173 0.713867 19.1919C0.713867 18.6664 0.883863 18.2337 1.22386 17.8937L8.45643 10.6611L1.22386 3.42857C0.883863 3.08857 0.713867 2.65585 0.713867 2.13041C0.713867 1.60497 0.883863 1.17225 1.22386 0.832254C1.56385 0.492261 1.99657 0.322266 2.52201 0.322266C3.04745 0.322266 3.48017 0.492261 3.82017 0.832254L12.3509 9.36299C12.5363 9.54844 12.668 9.74934 12.7459 9.9657C12.8226 10.1821 12.8609 10.4139 12.8609 10.6611C12.8609 10.9084 12.8226 11.1402 12.7459 11.3566C12.668 11.5729 12.5363 11.7738 12.3509 11.9593L3.82017 20.49C3.48017 20.83 3.04745 21 2.52201 21C1.99657 21 1.56385 20.83 1.22386 20.49Z" fill="#010101"/>
</svg>
