<svg width="13" height="21" viewBox="0 0 13 21" fill="none" xmlns="http://www.w3.org/2000/svg">
<path d="M11.637 20.49C11.977 20.15 12.147 19.7173 12.147 19.1919C12.147 18.6664 11.977 18.2337 11.637 17.8937L4.40441 10.6611L11.637 3.42857C11.977 3.08857 12.147 2.65585 12.147 2.13041C12.147 1.60497 11.977 1.17225 11.637 0.832254C11.297 0.492261 10.8643 0.322266 10.3388 0.322266C9.81339 0.322266 9.38067 0.492261 9.04067 0.832254L0.509943 9.36299C0.324492 9.54844 0.192822 9.74934 0.114932 9.9657C0.0382795 10.1821 -4.76837e-05 10.4139 -4.76837e-05 10.6611C-4.76837e-05 10.9084 0.0382795 11.1402 0.114932 11.3566C0.192822 11.5729 0.324492 11.7738 0.509943 11.9593L9.04067 20.49C9.38067 20.83 9.81339 21 10.3388 21C10.8643 21 11.297 20.83 11.637 20.49Z" fill="#010101"/>
</svg>
